<svg viewBox="0 0 200 60" fill="none" xmlns="http://www.w3.org/2000/svg">
<path id="Union (Stroke)" fill-rule="evenodd" clip-rule="evenodd" d="M178.785 41.7962L171.237 54.8539L163.676 41.773H23.5179C13.391 41.773 5.18158 33.5735 5.18158 23.4589C5.18158 13.3442 13.391 5.14467 23.5178 5.14467H177.081C187.208 5.14467 195.418 13.3442 195.418 23.4589C195.418 32.344 189.079 39.7596 180.669 41.4235L178.785 41.7962ZM199.652 23.4589C199.652 11.0083 189.547 0.915039 177.081 0.915039H23.5178C11.0522 0.915039 0.946838 11.0083 0.946838 23.4589C0.946838 35.9095 11.0522 46.0027 23.5179 46.0027H161.231L167.57 56.9687C169.2 59.7885 173.275 59.7885 174.904 56.9687L181.492 45.5725C191.846 43.5238 199.652 34.4019 199.652 23.4589Z" fill="black"/>
</svg>
