<svg width="77" height="22" viewBox="0 0 77 22" fill="none" xmlns="http://www.w3.org/2000/svg">
<g id="2020">
<path id="Vector" d="M47.4878 16.6859H53.4698V20.7062H38.7935L46.2527 12.593C47.3183 11.4306 48.3355 9.78371 48.3355 8.11264C48.3355 6.95016 47.5121 5.73924 46.2527 5.73924C44.9691 5.73924 44.2668 6.73219 44.2668 7.96733C44.2668 8.20951 44.291 8.47591 44.3395 8.74232H39.1083C39.2536 4.55254 41.9176 1.71899 46.2285 1.71899C50.055 1.71899 53.276 4.2377 53.276 8.20951C53.276 10.8251 52.1862 12.3509 50.3214 14.0461L47.4878 16.6859Z" fill="black"/>
<path id="Vector_2" d="M8.79302 16.6859H14.775V20.7062H0.0986328L7.55789 12.593C8.62349 11.4306 9.64066 9.78371 9.64066 8.11264C9.64066 6.95016 8.81724 5.73924 7.55789 5.73924C6.27431 5.73924 5.57198 6.73219 5.57198 7.96733C5.57198 8.20951 5.5962 8.47591 5.64464 8.74232H0.413471C0.558782 4.55254 3.2228 1.71899 7.53367 1.71899C11.3602 1.71899 14.5812 4.2377 14.5812 8.20951C14.5812 10.8251 13.4914 12.3509 11.6266 14.0461L8.79302 16.6859Z" fill="black"/>
<circle id="Ellipse 9" cx="26.8691" cy="11.3928" r="10.1235" fill="#D9D9D9"/>
<path id="Union" fill-rule="evenodd" clip-rule="evenodd" d="M64.4391 12.7637V17.322C63.2863 17.0703 62.2516 16.5029 61.4299 15.7151L64.4391 12.7637ZM67.1387 10.116L67.194 10.0618L67.1387 10.0055V5.01371C69.969 5.63162 72.088 8.15226 72.088 11.1678C72.088 14.1834 69.969 16.704 67.1387 17.322L67.1387 10.116ZM64.4391 8.98242L59.9072 13.4272C59.6376 12.7259 59.4898 11.9641 59.4898 11.1678C59.4898 8.15226 61.6089 5.63162 64.4391 5.01371V8.98242ZM65.7889 21.5163C71.5042 21.5163 76.1374 16.8832 76.1374 11.1678C76.1374 5.45252 71.5042 0.819336 65.7889 0.819336C60.0736 0.819336 55.4404 5.45252 55.4404 11.1678C55.4404 16.8832 60.0736 21.5163 65.7889 21.5163Z" fill="#E72F00"/>
</g>
</svg>
