<svg width="" height="" viewBox="0 0 47 47" fill="none" xmlns="http://www.w3.org/2000/svg">
<g id="info">
<path id="Vector (Stroke)" fill-rule="evenodd" clip-rule="evenodd" d="M23.5 5.43289C13.5217 5.43289 5.43277 13.5219 5.43277 23.5001C5.43277 33.4783 13.5217 41.5673 23.5 41.5673C33.4782 41.5673 41.5672 33.4783 41.5672 23.5001C41.5672 13.5219 33.4782 5.43289 23.5 5.43289ZM2.40051 23.5001C2.40051 11.8472 11.8471 2.40063 23.5 2.40063C35.1529 2.40063 44.5994 11.8472 44.5994 23.5001C44.5994 35.153 35.1529 44.5996 23.5 44.5996C11.8471 44.5996 2.40051 35.153 2.40051 23.5001Z" fill="none"/>
<path id="Vector (Stroke)_2" fill-rule="evenodd" clip-rule="evenodd" d="M23.5 21.9839C24.3374 21.9839 25.0161 22.6627 25.0161 23.5V31.3333C25.0161 32.1707 24.3374 32.8495 23.5 32.8495C22.6627 32.8495 21.9839 32.1707 21.9839 31.3333V23.5C21.9839 22.6627 22.6627 21.9839 23.5 21.9839Z" fill="none"/>
<path id="Vector (Stroke)_3" fill-rule="evenodd" clip-rule="evenodd" d="M21.9839 15.6668C21.9839 14.8294 22.6627 14.1506 23.5 14.1506H23.5208C24.3581 14.1506 25.0369 14.8294 25.0369 15.6668C25.0369 16.5041 24.3581 17.1829 23.5208 17.1829H23.5C22.6627 17.1829 21.9839 16.5041 21.9839 15.6668Z" fill="none"/>
</g>
</svg>
