<svg width="50" height="50" viewBox="0 0 50 50" fill="none" xmlns="http://www.w3.org/2000/svg">
<g id="search btn">
<path id="Vector (Stroke)" fill-rule="evenodd" clip-rule="evenodd" d="M22.9167 7.8125C14.5749 7.8125 7.8125 14.5749 7.8125 22.9167C7.8125 31.2585 14.5749 38.0208 22.9167 38.0208C31.2585 38.0208 38.0208 31.2585 38.0208 22.9167C38.0208 14.5749 31.2585 7.8125 22.9167 7.8125ZM4.6875 22.9167C4.6875 12.849 12.849 4.6875 22.9167 4.6875C32.9844 4.6875 41.1458 12.849 41.1458 22.9167C41.1458 32.9844 32.9844 41.1458 22.9167 41.1458C12.849 41.1458 4.6875 32.9844 4.6875 22.9167Z" fill="black"/>
<path id="Vector (Stroke)_2" fill-rule="evenodd" clip-rule="evenodd" d="M33.5826 33.5826C34.1928 32.9725 35.1822 32.9725 35.7924 33.5826L44.8549 42.6451C45.465 43.2553 45.465 44.2447 44.8549 44.8549C44.2447 45.465 43.2553 45.465 42.6451 44.8549L33.5826 35.7924C32.9725 35.1822 32.9725 34.1928 33.5826 33.5826Z" fill="black"/>
</g>
</svg>
