<svg width="119" height="118" viewBox="0 0 119 118" fill="none" xmlns="http://www.w3.org/2000/svg">
<path id="Union" fill-rule="evenodd" clip-rule="evenodd" d="M51.5544 68.091L50.2843 93.8275C43.79 92.0825 38.0556 88.5884 33.5963 83.9091L51.5544 68.091ZM67.6648 53.9005L67.9946 53.61L67.6956 53.2763L69.0865 25.0922C85.0308 29.3764 96.395 44.2038 95.5548 61.2301C94.7145 78.2563 81.9456 91.8927 65.6569 94.5861L67.6648 53.9005ZM52.608 46.7414L25.5628 70.5637C24.2232 66.5281 23.5941 62.1855 23.816 57.6897C24.6563 40.6634 37.4252 27.027 53.7139 24.3336L52.608 46.7414ZM56.8019 117.889C89.347 119.495 117.021 94.6374 118.614 62.368C120.206 30.0987 95.1141 2.63712 62.5689 1.03098C30.0237 -0.575164 2.34963 24.2823 0.757097 56.5517C-0.835431 88.8211 24.2567 116.283 56.8019 117.889Z" fill="#DD4D2A"/>
</svg>
